# xmcd
#
# Track frame offsets:
#	150
#	13493
#	24496
#	36699
#	46037
#	58502
#	68950
#	78040
#	91495
#	103330
#	114565
#
# Disc length: 1671 seconds
#
# Revision: 1
# Processed by: cddbd v1.5.2PL0 Copyright (c) Steve Scherf et al.
# Submitted via: audiograbber 1.83.01
#
DISCID=9206850b
DTITLE=Lefty Frizzell's - Greatest Hits
DYEAR=1966
DGENRE=Country
TTITLE0=Saginaw, Michigan
TTITLE1=Mom and Dad's Waltz
TTITLE2=Release Me
TTITLE3=Always Late (With Your Kisses)
TTITLE4=I Love You A Thousand Ways
TTITLE5=She's Gone Gone Gone
TTITLE6=If You've Got The Money, I've Got The Time
TTITLE7=The Long Black Veil
TTITLE8=I Want To Be With You Always
TTITLE9=Shine, Shave, Shower (Its Saturday)
TTITLE10=A Little Unfair
EXTD=
EXTT0=
EXTT1=
EXTT2=
EXTT3=
EXTT4=
EXTT5=
EXTT6=
EXTT7=
EXTT8=
EXTT9=
EXTT10=
PLAYORDER=
